# xmcd CD database file
#
# Track frame offsets:
#	150
#	10603
#	45750
#	85220
#	89355
#	97856
#	124546
#	153968
#
# Disc length: 2374 seconds
#
# Revision: 0
# Processed by: cddbd v1.5.2PL0 Copyright (c) Steve Scherf et al.
# Submitted via: CDex 1.51
#
DISCID=44094408
DTITLE=Ferdinando Faraò - Darwinsuite
DYEAR=2009
DGENRE=Jazz
TTITLE0=The Trip
TTITLE1=Standing Up!
TTITLE2=A Man Who Dares To Waste
TTITLE3=Corale
TTITLE4=Slow Orchids
TTITLE5=Morgh...
TTITLE6=Unquiet Turtles
TTITLE7=Pithecantropus Erectus
EXTD=YEAR: 2009
EXTT0=
EXTT1=
EXTT2=
EXTT3=
EXTT4=
EXTT5=
EXTT6=
EXTT7=
PLAYORDER=
